<?xml version="1.0" encoding="UTF-8"?>
<!DOCTYPE svg PUBLIC "-//W3C//DTD SVG 1.1//EN" "http://www.w3.org/Graphics/SVG/1.1/DTD/svg11.dtd">
<svg xmlns="http://www.w3.org/2000/svg" version="1.1" width="1416px" height="400px" style="shape-rendering:geometricPrecision; text-rendering:geometricPrecision; image-rendering:optimizeQuality; fill-rule:evenodd; clip-rule:evenodd" xmlns:xlink="http://www.w3.org/1999/xlink">
<g><path style="opacity:0.965" fill="#fefffe" d="M 0.5,-0.5 C 21.5,-0.5 42.5,-0.5 63.5,-0.5C 78.6233,4.87162 86.2899,15.705 86.5,32C 86.263,50.2319 77.263,61.2319 59.5,65C 50.5062,65.4998 41.5062,65.6664 32.5,65.5C 32.5,75.8333 32.5,86.1667 32.5,96.5C 21.8333,96.5 11.1667,96.5 0.5,96.5C 0.5,64.1667 0.5,31.8333 0.5,-0.5 Z M 32.5,22.5 C 38.2617,22.1493 43.9284,22.6493 49.5,24C 52.5451,25.9326 54.2117,28.766 54.5,32.5C 54.2531,36.5789 52.2531,39.4122 48.5,41C 43.1771,41.4994 37.8437,41.666 32.5,41.5C 32.5,35.1667 32.5,28.8333 32.5,22.5 Z"/></g>
<g><path style="opacity:0.963" fill="#fefffe" d="M 115.5,-0.5 C 128.167,-0.5 140.833,-0.5 153.5,-0.5C 164.869,31.7744 176.536,63.9411 188.5,96C 177.167,96.6667 165.833,96.6667 154.5,96C 153.073,91.886 151.74,87.7194 150.5,83.5C 139.5,82.1667 128.5,82.1667 117.5,83.5C 116.167,87.5 114.833,91.5 113.5,95.5C 102.515,96.6658 91.5151,96.8324 80.5,96C 92.4641,63.9411 104.131,31.7744 115.5,-0.5 Z M 133.5,27.5 C 136.997,37.9979 140.33,48.6646 143.5,59.5C 137.202,60.4963 130.868,60.8297 124.5,60.5C 127.656,49.5439 130.656,38.5439 133.5,27.5 Z"/></g>
<g><path style="opacity:0.964" fill="#fefffe" d="M 190.5,-0.5 C 201.5,-0.5 212.5,-0.5 223.5,-0.5C 227.06,16.8012 230.56,34.1346 234,51.5C 238.203,34.3182 241.703,16.9849 244.5,-0.5C 255.167,-0.5 265.833,-0.5 276.5,-0.5C 280.394,17.134 284.227,34.8007 288,52.5C 291.384,34.859 294.551,17.1924 297.5,-0.5C 308.167,-0.5 318.833,-0.5 329.5,-0.5C 322.325,31.8675 314.991,64.2008 307.5,96.5C 295.814,96.8322 284.148,96.4989 272.5,95.5C 268.144,76.5532 263.977,57.5532 260,38.5C 256.128,57.5278 252.128,76.5278 248,95.5C 236.247,96.4882 224.414,96.8215 212.5,96.5C 205.167,64.1667 197.833,31.8333 190.5,-0.5 Z"/></g>
<g><path style="opacity:0.994" fill="#ffaf11" d="M 389.5,399.5 C 378.5,399.5 367.5,399.5 356.5,399.5C 309.556,390.781 273.056,366.448 247,326.5C 234.611,303.061 228.778,278.061 229.5,251.5C 229.942,202.03 244.109,157.03 272,116.5C 275.021,112.482 278.354,108.816 282,105.5C 281.049,117.783 280.716,130.116 281,142.5C 281.155,149.801 283.155,156.468 287,162.5C 307.114,148.382 322.114,130.049 332,107.5C 347.623,73.5502 354.456,37.8836 352.5,0.5C 362.831,3.83264 372.164,8.99931 380.5,16C 404.317,36.4836 422.817,60.9836 436,89.5C 441.197,103.424 446.197,117.424 451,131.5C 459.821,121.369 463.654,109.536 462.5,96C 462.598,89.4001 461.932,82.9001 460.5,76.5C 461,76.1667 461.5,75.8333 462,75.5C 469.406,79.0489 475.739,84.0489 481,90.5C 501.535,114.238 515.202,141.571 522,172.5C 535.351,226.339 529.684,278.005 505,327.5C 486.93,358.56 460.763,379.727 426.5,391C 414.227,394.684 401.894,397.517 389.5,399.5 Z"/></g>
<g><path style="opacity:0.987" fill="#fefffe" d="M -0.5,120.5 C 49.1678,120.333 98.8345,120.5 148.5,121C 187.508,127.008 210.342,149.508 217,188.5C 222.035,219.566 213.868,246.399 192.5,269C 182.153,278.173 170.153,284.173 156.5,287C 130.867,288.433 105.2,288.933 79.5,288.5C 79.5,315.167 79.5,341.833 79.5,368.5C 52.8333,368.5 26.1667,368.5 -0.5,368.5C -0.5,285.833 -0.5,203.167 -0.5,120.5 Z M 79.5,179.5 C 91.1714,179.333 102.838,179.5 114.5,180C 129.532,181.221 136.866,189.388 136.5,204.5C 137.449,215.357 133.115,223.19 123.5,228C 108.892,229.432 94.2253,229.932 79.5,229.5C 79.5,212.833 79.5,196.167 79.5,179.5 Z"/></g>
<g><path style="opacity:0.984" fill="#fefffe" d="M 530.5,123.5 C 558.407,123.172 586.241,123.505 614,124.5C 623.333,170.5 632.667,216.5 642,262.5C 652.064,216.348 661.564,170.014 670.5,123.5C 697.074,123.172 723.574,123.505 750,124.5C 759.873,170.866 769.873,217.2 780,263.5C 789.029,216.856 797.862,170.19 806.5,123.5C 833.167,123.5 859.833,123.5 886.5,123.5C 867.495,205.855 848.328,288.189 829,370.5C 799.574,371.495 770.074,371.829 740.5,371.5C 730.358,321.287 719.525,271.287 708,221.5C 697.433,271.502 686.933,321.502 676.5,371.5C 646.926,371.829 617.426,371.495 588,370.5C 568.672,288.187 549.505,205.854 530.5,123.5 Z"/></g>
<g><path style="opacity:0.978" fill="#fefffe" d="M 913.5,123.5 C 985.167,123.5 1056.83,123.5 1128.5,123.5C 1128.5,143.5 1128.5,163.5 1128.5,183.5C 1083.83,183.5 1039.17,183.5 994.5,183.5C 994.5,194.5 994.5,205.5 994.5,216.5C 1032.83,216.5 1071.17,216.5 1109.5,216.5C 1109.5,235.833 1109.5,255.167 1109.5,274.5C 1071.17,274.5 1032.83,274.5 994.5,274.5C 994.5,286.5 994.5,298.5 994.5,310.5C 1039.83,310.5 1085.17,310.5 1130.5,310.5C 1130.5,330.833 1130.5,351.167 1130.5,371.5C 1058.17,371.5 985.833,371.5 913.5,371.5C 913.5,288.833 913.5,206.167 913.5,123.5 Z"/></g>
<g><path style="opacity:0.986" fill="#fefffe" d="M 1415.5,369.5 C 1415.5,370.167 1415.5,370.833 1415.5,371.5C 1385.49,371.833 1355.49,371.5 1325.5,370.5C 1311.17,341.167 1296.83,311.833 1282.5,282.5C 1272.86,281.502 1263.19,281.168 1253.5,281.5C 1253.5,311.5 1253.5,341.5 1253.5,371.5C 1226.83,371.5 1200.17,371.5 1173.5,371.5C 1173.5,288.833 1173.5,206.167 1173.5,123.5C 1228.5,123.333 1283.5,123.5 1338.5,124C 1382.44,130.108 1405.78,155.275 1408.5,199.5C 1408.34,222.316 1399.67,241.149 1382.5,256C 1375.76,260.698 1368.76,264.865 1361.5,268.5C 1379.27,302.387 1397.27,336.054 1415.5,369.5 Z M 1253.5,180.5 C 1272.17,180.333 1290.84,180.5 1309.5,181C 1325.76,187.757 1330.26,199.257 1323,215.5C 1319.99,219.52 1316.16,222.353 1311.5,224C 1292.22,225.45 1272.89,225.95 1253.5,225.5C 1253.5,210.5 1253.5,195.5 1253.5,180.5 Z"/></g>
<g><path style="opacity:1" fill="#fefdfd" d="M 365.5,175.5 C 390.53,173.872 414.197,178.706 436.5,190C 450.477,198.112 460.643,209.612 467,224.5C 467.499,228.152 467.665,231.818 467.5,235.5C 439.029,236.155 410.529,236.488 382,236.5C 351.807,236.634 321.641,236.134 291.5,235C 290.112,228.456 291.279,222.29 295,216.5C 305.73,199.777 320.563,188.277 339.5,182C 348.14,179.173 356.807,177.007 365.5,175.5 Z"/></g>
<g><path style="opacity:1" fill="#fefdfb" d="M 297.5,250.5 C 327.502,250.333 357.502,250.5 387.5,251C 391.112,252.139 394.446,253.806 397.5,256C 405.129,263.131 413.463,269.297 422.5,274.5C 425.329,273.253 427.995,271.753 430.5,270C 437.548,263.951 444.881,258.284 452.5,253C 463.206,248.351 470.706,251.517 475,262.5C 476.606,270.01 474.773,276.51 469.5,282C 465.389,283.891 461.056,284.891 456.5,285C 403.5,285.667 350.5,285.667 297.5,285C 287.204,283.286 282.537,277.12 283.5,266.5C 283.549,257.118 288.216,251.785 297.5,250.5 Z"/></g>
<g><path style="opacity:1" fill="#fefdfc" d="M 312.5,295.5 C 319.155,296.108 325.655,297.441 332,299.5C 337.172,298.743 342.172,297.41 347,295.5C 352.46,296.74 357.96,297.74 363.5,298.5C 368.167,297.5 372.833,296.5 377.5,295.5C 383.255,296.417 388.921,297.751 394.5,299.5C 399.359,298.27 404.192,296.936 409,295.5C 414.299,296.991 419.633,298.325 425,299.5C 430.259,297.871 435.592,296.537 441,295.5C 445.854,296.672 450.688,298.006 455.5,299.5C 459.298,298.967 462.965,297.967 466.5,296.5C 468.487,314.692 460.82,326.858 443.5,333C 404.01,340.418 364.343,341.418 324.5,336C 308.217,334.119 297.05,325.619 291,310.5C 290.172,305.798 290.338,301.131 291.5,296.5C 298.747,300.455 305.747,300.121 312.5,295.5 Z"/></g>
</svg>
